<svg xmlns="http://www.w3.org/2000/svg" xmlns:xlink="http://www.w3.org/1999/xlink" width="42" height="41" viewBox="0 0 42 41">
    <defs>
        <path id="4hoqspsnga" d="M0 0.698L41.628 0.698 41.628 41 0 41z"/>
    </defs>
    <g fill="none" fill-rule="evenodd">
        <g>
            <g>
                <g>
                    <g transform="translate(-542 -966) translate(354 933) translate(188 33)">
                        <mask id="8l4e74ys4b" fill="#fff">
                            <use xlink:href="#4hoqspsnga"/>
                        </mask>
                        <path fill="#989898" d="M40.495 28.826h-3.849V5.103c0-.31-.253-.562-.566-.562H6.114V1.822h34.381v27.004zm-4.98 2.901H18.322c-.142 0-.278.054-.383.148L9.934 39.16v-6.87c0-.31-.253-.563-.566-.563H1.132V5.665h34.382v26.062zm-3.821 4.532l-3.744-3.407h3.744v3.407zM41.062.7H5.548c-.313 0-.566.25-.566.561v3.28H.566c-.313 0-.566.253-.566.563v27.186c0 .311.253.563.566.563h8.236v7.587c0 .221.133.424.338.513.074.032.15.048.228.048.139 0 .276-.051.383-.147l8.792-8h7.73l5.604 5.097c.107.098.244.148.383.148.077 0 .154-.015.227-.047.206-.09.34-.292.34-.515v-4.684h3.253c.313 0 .566-.252.566-.563V29.95h4.416c.312 0 .566-.252.566-.562V1.26c0-.31-.254-.562-.566-.562z" mask="url(#8l4e74ys4b)"/>
                    </g>
                    <path fill="#989898" d="M31.443 13H6.557c-.308 0-.557.223-.557.5 0 .276.249.5.557.5h24.886c.308 0 .557-.224.557-.5 0-.277-.25-.5-.557-.5M31.443 17H6.557c-.308 0-.557.223-.557.5 0 .276.249.5.557.5h24.886c.308 0 .557-.224.557-.5 0-.277-.25-.5-.557-.5M15.446 23H5.554c-.307 0-.554.223-.554.5 0 .275.247.5.554.5h9.892c.306 0 .554-.225.554-.5 0-.277-.248-.5-.554-.5" transform="translate(-542 -966) translate(354 933) translate(188 33)"/>
                </g>
            </g>
        </g>
    </g>
</svg>
