<svg xmlns="http://www.w3.org/2000/svg" xmlns:xlink="http://www.w3.org/1999/xlink" width="41" height="40" viewBox="0 0 41 40">
    <defs>
        <path id="4ecv4qvw9a" d="M0 0.249L40.328 0.249 40.328 40 0 40z"/>
    </defs>
    <g fill="none" fill-rule="evenodd">
        <g>
            <g>
                <g>
                    <g transform="translate(-386 -966) translate(354 933) translate(32 33)">
                        <mask id="obgqtpa0yb" fill="#fff">
                            <use xlink:href="#4ecv4qvw9a"/>
                        </mask>
                        <path fill="#979797" d="M39.223 31.042h-6.698V8.66c0-.304-.246-.549-.552-.549H8.908V1.346h30.315v29.696zm-38.118 7.86H31.42V9.207H1.105v29.697zM39.775.25H8.355c-.305 0-.553.246-.553.55V8.11H.552C.248 8.11 0 8.355 0 8.66V39.45c0 .304.247.55.553.55h31.42c.306 0 .552-.246.552-.55V32.14h7.25c.305 0 .554-.246.554-.549V.798c0-.303-.249-.549-.554-.549z" mask="url(#obgqtpa0yb)"/>
                    </g>
                    <path fill="#979797" d="M25.459 23.957H16.54v-8.413c0-.3-.242-.544-.542-.544-.298 0-.54.244-.54.544v8.413H6.542c-.3 0-.542.243-.542.544 0 .3.242.543.542.543h8.917v8.412c0 .3.242.544.54.544.3 0 .542-.244.542-.544v-8.412h8.918c.298 0 .541-.243.541-.543 0-.3-.243-.544-.541-.544" transform="translate(-386 -966) translate(354 933) translate(32 33)"/>
                </g>
            </g>
        </g>
    </g>
</svg>
