<svg xmlns="http://www.w3.org/2000/svg" xmlns:xlink="http://www.w3.org/1999/xlink" width="31" height="39" viewBox="0 0 31 39">
    <defs>
        <path id="o1v932wy0a" d="M0 0.631L30.675 0.631 30.675 39 0 39z"/>
    </defs>
    <g fill="none" fill-rule="evenodd">
        <g>
            <g>
                <g>
                    <g transform="translate(-1016 -966) translate(354 933) translate(662 33)">
                        <mask id="8dcsral45b" fill="#fff">
                            <use xlink:href="#o1v932wy0a"/>
                        </mask>
                        <path fill="#989898" d="M1.297 1.95H21.19v7.37c0 .364.29.66.649.66h7.539v27.7H1.298V1.95zm21.19.893L28.42 8.66h-5.931V2.843zM30.028 39c.357 0 .649-.296.649-.66V9.32c0-.178-.072-.35-.2-.474L22.298.825l-.01-.01c-.027-.027-.063-.041-.095-.063-.036-.025-.067-.054-.107-.07-.077-.033-.161-.052-.246-.052H.649c-.358 0-.65.297-.65.66v37.05c0 .364.292.66.65.66h29.378z" mask="url(#8dcsral45b)"/>
                    </g>
                    <path fill="#989898" d="M20.857 17.214l-8.2 8.92-1.435-2.287c-.208-.33-.624-.418-.93-.191-.305.226-.384.68-.176 1.013l1.889 3.013c.112.18.292.294.49.315l.062.003c.178 0 .349-.076.474-.214l8.773-9.542c.261-.285.261-.745 0-1.03-.262-.285-.685-.285-.947 0" transform="translate(-1016 -966) translate(354 933) translate(662 33)"/>
                </g>
            </g>
        </g>
    </g>
</svg>
