<svg xmlns="http://www.w3.org/2000/svg" xmlns:xlink="http://www.w3.org/1999/xlink" width="50" height="39" viewBox="0 0 50 39">
    <defs>
        <path id="5qn4plrpza" d="M0 0.777L49.246 0.777 49.246 29.633 0 29.633z"/>
        <path id="dg3urde9ac" d="M0.755 0.028L10.351 0.028 10.351 24 0.755 24z"/>
    </defs>
    <g fill="none" fill-rule="evenodd">
        <g>
            <g>
                <g>
                    <g transform="translate(-694 -966) translate(354 933) translate(340 33)">
                        <mask id="u1etg6163b" fill="#fff">
                            <use xlink:href="#5qn4plrpza"/>
                        </mask>
                        <path fill="#989898" d="M36.592 7.083c-.832 0-1.686.092-2.545.275C31.779 3.285 27.58.778 22.963.778c-5.91 0-11.022 4.142-12.391 9.939-.316-.034-.616-.05-.91-.05-5.327 0-9.662 4.414-9.662 9.84 0 2.534.956 7.042 2.752 8.914.13.136.309.212.496.212H18.63c.378 0 .685-.306.685-.681 0-.377-.307-.682-.685-.682H3.559c-1.265-1.567-2.188-5.287-2.188-7.764 0-4.674 3.72-8.476 8.291-8.476.41 0 .849.04 1.337.12.37.06.72-.183.788-.549C12.8 6.12 17.5 2.14 22.963 2.14c4.272 0 8.148 2.418 10.113 6.309.144.286.474.435.782.354.926-.236 1.847-.356 2.734-.356 6.222 0 11.283 5.172 11.283 11.529 0 2.523-.737 6.408-1.817 8.295h-15.09c-.379 0-.685.305-.685.682 0 .375.306.681.685.681H46.44c.228 0 .441-.113.568-.3 1.46-2.156 2.238-6.82 2.238-9.358 0-7.108-5.677-12.892-12.654-12.892" mask="url(#u1etg6163b)"/>
                    </g>
                    <g transform="translate(-694 -966) translate(354 933) translate(340 33) translate(19 15)">
                        <mask id="gdyy6c7b6d" fill="#fff">
                            <use xlink:href="#dg3urde9ac"/>
                        </mask>
                        <path fill="#989898" d="M6.1.297c-.251-.359-.843-.359-1.095 0L.88 6.16c-.216.306-.145.732.158.95.302.22.722.148.938-.158l2.905-4.13V23.32c0 .376.3.681.672.681.372 0 .672-.305.672-.681V2.823l2.905 4.13c.131.185.339.285.55.285.135 0 .27-.041.388-.127.303-.219.374-.645.159-.95L6.1.296z" mask="url(#gdyy6c7b6d)"/>
                    </g>
                </g>
            </g>
        </g>
    </g>
</svg>
